<svg id="eac00f18-7eab-4208-ad4d-248901d936f9" data-name="Layer 1" xmlns="http://www.w3.org/2000/svg" width="866.52362"
     height="637.05628" viewBox="0 0 1096.52362 637.05628">
  <path xmlns="http://www.w3.org/2000/svg"
        d="M1154.4,591.26c-26.57,54.81-80.52,91.46-136.43,115.63-75.27,32.55-158.16,45.46-239.91,40q-21.49-1.43-42.85-4.57a540.44,540.44,0,0,1-143.27-41.72q-19.74-8.89-38.68-19.41a494.85,494.85,0,0,1-60.46-39.54q-7.23-5.52-14.26-11.32c-3.25-2.68-6.47-5.42-9.74-8.08-6.9-5.61-14-10.94-21.92-14.93a78.31,78.31,0,0,0-7.34-3.24c-25.08-9.54-54-5.94-80.11,1.5-19.86,5.66-39.22,13.41-59.06,18.94a196,196,0,0,1-26.91,5.72A143.21,143.21,0,0,1,213,624.93l-1.67-.52q-4.2-1.32-8.33-2.89l-1.67-.64q-4-1.54-7.83-3.31l-1.67-.76q-4-1.86-7.83-3.93c-.92-.48-1.83-1-2.73-1.49a163.67,163.67,0,0,1-39.16-30.49c-.33-.33-.64-.67-1-1-1.59-1.72-3.15-3.47-4.66-5.26-.56-.66-1.12-1.32-1.67-2q-2.69-3.28-5.19-6.71c-.25-.33-.49-.67-.73-1A144.59,144.59,0,0,1,112,534.44c-.14-.33-.27-.67-.39-1q-2-5.15-3.65-10.47c-.45-1.48-.88-3-1.26-4.48-.13-.44-.25-.89-.36-1.33-5.52-21.73-6.15-44.32-6.15-66.78q0-3.93,0-7.85c.16-36.33.72-73.28,6.08-109.11,0-.25.07-.5.11-.74a340.76,340.76,0,0,1,7.31-35.82A264.25,264.25,0,0,1,126,260.56c12.33-29,30.26-55.39,50.17-79.85C226.32,119.16,292.09,67.49,369.07,48.15c82.95-20.83,175.14-.87,242.05,52.4,20.4,16.24,38.73,35.47,61.64,47.92,20,10.84,43.41,15.33,64.83,6.8,17.7-7.05,29.22-10.55,49.1-9.48A411.56,411.56,0,0,1,907.05,171c1.56.57,3.12,1.16,4.67,1.75C1012.43,211.28,1099,287.83,1144,386.2q1.79,3.9,3.47,7.86C1174.3,456.73,1184,530.18,1154.4,591.26Z"
        transform="translate(-96.97 -70.04)" fill="#1b5e20" opacity="0.1"/>
  <path d="M971.73819,768.52814v-72.34S999.92985,747.47411,971.73819,768.52814Z"
        transform="translate(-166.73819 -131.47186)" fill="#f1f1f1"/>
  <path d="M973.47966,768.51541,920.19,719.59417S977.03523,733.5097,973.47966,768.51541Z"
        transform="translate(-166.73819 -131.47186)" fill="#f1f1f1"/>
  <path
    d="M743.26636,577.44241a9.09535,9.09535,0,0,1,9.85146-9.872l9.60661-18.431,12.62434,3.10614-13.932,25.83764a9.14461,9.14461,0,0,1-18.15045-.64078Z"
    transform="translate(-166.73819 -131.47186)" fill="#ffb7b7"/>
  <polygon points="633.871 625.527 623.218 625.526 618.15 584.437 633.873 584.438 633.871 625.527"  fill="#ffb7b7"/>
  <path
    d="M803.32565,767.32462l-34.34883-.00127v-.43446a13.37025,13.37025,0,0,1,13.36952-13.36931h.00085l20.9791.00085Z"
    transform="translate(-166.73819 -131.47186)" fill="#2f2e41"/>
  <polygon points="719.549 617.569 709.271 620.371 693.57 582.063 708.739 577.927 719.549 617.569" fill="#ffb7b7"/>
  <path
    d="M891.62477,758.288,858.486,767.32462l-.11432-.41915a13.37025,13.37025,0,0,1,9.38068-16.416l.00082-.00022L887.99322,744.97Z"
    transform="translate(-166.73819 -131.47186)" fill="#2f2e41"/>
  <polygon
    points="614.423 448.033 609.109 528.727 620.524 619.261 639.221 613.554 640.009 532.663 654.966 486.018 699.25 610.602 719.521 603.123 702.792 522.232 693.345 446.262 614.423 448.033"
    fill="#2f2e41"/>
  <path
    d="M832.82255,437.80621,801.33678,442.449,789.994,453.66711l-3.5219,40.30669,2.18745,35.702-9.11869,62.959s22.93018-12.72919,40.70053,3.20519,42.63547,2.816,43.147-7.784Z"
    transform="translate(-166.73819 -131.47186)" fill="#cbcbcb"/>
  <path
    d="M816.83429,488.35732l-.00043-.04526,15.64133-50.984.20211-.01318c1.11327-.07248,27.33679-1.618,33.20236,11.33006l.02836.06246-1.78163,52.983,2.45371,82.97939-48.50061,10.50471-.35252.07678Z"
    transform="translate(-166.73819 -131.47186)" fill="#2f2e41"/>
  <path
    d="M799.50072,484.833l2.86926-43.2209c-20.40666,1.2694-20.09926,15.73786-20.07577,16.3687l-.223,64.64973-4.08709,69.1641,14.86038-1.11441Z"
    transform="translate(-166.73819 -131.47186)" fill="#2f2e41"/>
  <path d="M753.48519,563.47709l18.11738-42.04748L784.248,498.208l6.60212,41.88934-22.9224,34.38352Z"
        transform="translate(-166.73819 -131.47186)" fill="#2f2e41"/>
  <path
    d="M828.36,548.00623a9.09534,9.09534,0,0,1,12.32532-6.52638l14.61634-14.77674,11.14617,6.69216L845.51367,553.973A9.14461,9.14461,0,0,1,828.36,548.00623Z"
    transform="translate(-166.73819 -131.47186)" fill="#ffb7b7"/>
  <path
    d="M840.65123,536.08544,870.45248,503.393,850.72593,475.2442l2.03043-13.762L864.38293,447.12l.2269.29336c1.23932,1.60372,30.36218,39.43935,31.19784,53.76257.83853,14.37622-41.02087,50.74162-42.80336,52.28232l-.24766.21428Z"
    transform="translate(-166.73819 -131.47186)" fill="#2f2e41"/>
  <circle cx="647.9164" cy="281.61187" r="21.18132" fill="#ffb7b7"/>
  <path
    d="M834.57593,396.15035l1.02686-2.06675-5.1669-2.56715s-5.69991-9.27437-16.01412-6.66807-14.95472,4.16612-14.95472,4.16612l-5.15383,2.59323,2.58668,2.57367-4.6404,1.55986,3.10011,1.54028-3.60707,2.07328,1.94177,10.62831s3.22513-8.06117,9.42537-4.98062,17.5414-1.59245,17.5414-1.59245l9.853,19.06862s2.03267-6.6845,5.65681-4.9021C836.17091,417.57661,845.42963,402.83144,834.57593,396.15035Z"
    transform="translate(-166.73819 -131.47186)" fill="#2f2e41"/>
  <path d="M594.90728,516.06962,272.80489,604.901,166.73819,220.3032l322.10239-88.83134Z"
        transform="translate(-166.73819 -131.47186)" fill="#fff"/>
  <path
    d="M594.90728,516.06962,272.80489,604.901,166.73819,220.3032l322.10239-88.83134ZM276.92016,597.65144l310.73759-85.69709-102.93244-373.233-310.7376,85.6971Z"
    transform="translate(-166.73819 -131.47186)" fill="#f1f1f1"/>
  <path
    d="M418.744,303.76532l-80.741,22.26726a4.46018,4.46018,0,0,1-5.47917-3.11031l-22.26725-80.74105a4.46017,4.46017,0,0,1,3.11031-5.47917l80.74105-22.26725a4.46016,4.46016,0,0,1,5.47916,3.11031l22.26726,80.74105A4.46016,4.46016,0,0,1,418.744,303.76532ZM313.8406,238.42a2.676,2.676,0,0,0-1.86619,3.2875l22.26726,80.74105a2.676,2.676,0,0,0,3.2875,1.86619l80.741-22.26726a2.676,2.676,0,0,0,1.86619-3.2875l-22.26726-80.741a2.676,2.676,0,0,0-3.2875-1.86619Z"
    transform="translate(-166.73819 -131.47186)" fill="#e5e5e5"/>
  <path
    d="M398.2766,320.03913l-80.741,22.26726a4.01409,4.01409,0,0,1-4.93125-2.79928L290.337,258.76606a4.01409,4.01409,0,0,1,2.79928-4.93125l80.741-22.26726a4.01409,4.01409,0,0,1,4.93125,2.79928l22.26726,80.74105A4.01408,4.01408,0,0,1,398.2766,320.03913Z"
    transform="translate(-166.73819 -131.47186)" fill="#1b5e20"/>
  <rect x="263.48929" y="361.96862" width="233.72825" height="9.03209"
        transform="translate(-250.48374 -17.16149) rotate(-15.41811)" fill="#f1f1f1"/>
  <rect x="269.75017" y="384.67055" width="233.72825" height="9.03209"
        transform="translate(-256.29398 -14.67996) rotate(-15.41811)" fill="#f1f1f1"/>
  <rect x="276.01104" y="407.37248" width="233.72825" height="9.03209"
        transform="translate(-262.10422 -12.19843) rotate(-15.41811)" fill="#f1f1f1"/>
  <rect x="287.03019" y="447.32789" width="233.72825" height="9.03209"
        transform="translate(-272.33023 -7.83093) rotate(-15.41811)" fill="#f1f1f1"/>
  <rect x="293.29106" y="470.02982" width="233.72825" height="9.03209"
        transform="translate(-278.14047 -5.34939) rotate(-15.41811)" fill="#f1f1f1"/>
  <rect x="299.55194" y="492.73176" width="233.72825" height="9.03209"
        transform="translate(-283.9507 -2.86786) rotate(-15.41811)" fill="#f1f1f1"/>
  <path d="M698.0144,603.61617H363.88724V204.66055H698.0144Z" transform="translate(-166.73819 -131.47186)" fill="#fff"/>
  <path d="M698.0144,603.61617H363.88724V204.66055H698.0144Zm-328.23263-5.89454H692.11986V210.55508H369.78177Z"
        transform="translate(-166.73819 -131.47186)" fill="#e5e5e5"/>
  <rect x="279.40817" y="244.69464" width="191.03421" height="9.03209" fill="#1b5e20"/>
  <rect x="279.40817" y="268.17807" width="191.03421" height="9.03209" fill="#1b5e20"/>
  <rect x="279.40817" y="291.66149" width="191.03421" height="9.03209" fill="#1b5e20"/>
  <circle cx="263.87741" cy="250.53394" r="5.89453" fill="#1b5e20"/>
  <rect x="279.40817" y="143.50512" width="191.03421" height="9.03209" fill="#e5e5e5"/>
  <rect x="279.40817" y="166.98855" width="191.03421" height="9.03209" fill="#e5e5e5"/>
  <rect x="279.40817" y="190.47198" width="191.03421" height="9.03209" fill="#e5e5e5"/>
  <circle cx="263.87741" cy="148.36201" r="5.89453" fill="#e5e5e5"/>
  <rect x="279.40817" y="346.86657" width="191.03421" height="9.03209" fill="#e5e5e5"/>
  <rect x="279.40817" y="370.35" width="191.03421" height="9.03209" fill="#e5e5e5"/>
  <rect x="279.40817" y="393.83343" width="191.03421" height="9.03209" fill="#e5e5e5"/>
  <circle cx="263.87741" cy="351.72346" r="5.89453" fill="#e5e5e5"/>
  <circle cx="515.67691" cy="438.20509" r="68.29339" fill="#1b5e20"/>
  <path
    d="M701.33633,565.32032V552.25311a18.92123,18.92123,0,1,0-37.84245,0v13.06721a9.83809,9.83809,0,0,0-9.39555,9.82325v30.87926h56.63355V575.14357A9.83809,9.83809,0,0,0,701.33633,565.32032ZM682.4151,539.99384a12.27276,12.27276,0,0,1,12.25846,12.25927v13.04444H670.15665V552.25311A12.27275,12.27275,0,0,1,682.4151,539.99384Z"
    transform="translate(-166.73819 -131.47186)" fill="#fff"/>
  <path
    d="M687.50571,580.56948a5.09061,5.09061,0,1,0-7.95433,4.207v11.065H685.278v-11.065A5.08421,5.08421,0,0,0,687.50571,580.56948Z"
    transform="translate(-166.73819 -131.47186)" fill="#1b5e20"/>
  <path d="M1032.26181,768.12193h-381a1,1,0,0,1,0-2h381a1,1,0,0,1,0,2Z" transform="translate(-166.73819 -131.47186)"
        fill="#cbcbcb"/>
</svg>
