<svg width="146" height="76" viewBox="0 0 146 76" fill="none" xmlns="http://www.w3.org/2000/svg">
<g clip-path="url(#clip0)">
<path d="M22.9634 39.2971C22.9634 37.8266 22.4443 36.7023 21.4065 35.9239C20.3686 35.1281 18.5004 34.2978 15.8018 33.4329C13.1033 32.5507 10.967 31.6858 9.39287 30.8382C5.1029 28.5202 2.95792 25.3979 2.95792 21.4712C2.95792 19.4299 3.52875 17.6137 4.67044 16.0222C5.82943 14.4135 7.48141 13.1594 9.62639 12.2599C11.7887 11.3604 14.2104 10.9106 16.8916 10.9106C19.5902 10.9106 21.9947 11.4036 24.105 12.3896C26.2154 13.3583 27.8501 14.7335 29.009 16.5152C30.1853 18.2969 30.7735 20.3209 30.7735 22.5869H22.9893C22.9893 20.8571 22.4443 19.5164 21.3546 18.5651C20.2648 17.5963 18.7339 17.112 16.7619 17.112C14.8591 17.112 13.3801 17.5185 12.3249 18.3316C11.2697 19.1272 10.7421 20.1824 10.7421 21.4971C10.7421 22.7253 11.3562 23.7545 12.5844 24.5848C13.8299 25.4151 15.6549 26.1937 18.0593 26.9201C22.4876 28.2522 25.7138 29.9041 27.7376 31.8762C29.7616 33.8482 30.7735 36.3044 30.7735 39.2452C30.7735 42.5145 29.5367 45.0833 27.0631 46.9516C24.5893 48.8024 21.2595 49.7279 17.0732 49.7279C14.1672 49.7279 11.5206 49.2003 9.13339 48.1451C6.74623 47.0726 4.92127 45.6109 3.6585 43.76C2.41303 41.9091 1.79028 39.7641 1.79028 37.3251H9.60044C9.60044 41.494 12.0914 43.5784 17.0732 43.5784C18.9242 43.5784 20.3686 43.2064 21.4065 42.4626C22.4443 41.7015 22.9634 40.6463 22.9634 39.2971ZM42.6055 21.1338L42.8391 24.2736C44.8283 21.8344 47.5182 20.6149 50.9086 20.6149C54.5239 20.6149 57.0063 22.0421 58.3556 24.8962C60.3276 22.0421 63.1385 20.6149 66.7885 20.6149C69.8329 20.6149 72.099 21.5058 73.5866 23.2875C75.0743 25.052 75.8181 27.7159 75.8181 31.2793V49.209H68.2933V31.3053C68.2933 29.7138 67.982 28.5549 67.3593 27.8283C66.7366 27.0844 65.6381 26.7126 64.064 26.7126C61.8151 26.7126 60.2583 27.785 59.3934 29.93L59.4193 49.209H51.9206V31.3312C51.9206 29.7051 51.6005 28.5289 50.9606 27.8024C50.3206 27.0758 49.2307 26.7126 47.6912 26.7126C45.5634 26.7126 44.024 27.5948 43.0725 29.3592V49.209H35.5738V21.1338H42.6055ZM97.8733 49.209C97.5274 48.5343 97.2766 47.6954 97.121 46.6921C95.3046 48.7159 92.9434 49.7279 90.0373 49.7279C87.2869 49.7279 85.0035 48.9321 83.1871 47.3408C81.3882 45.7493 80.4886 43.7427 80.4886 41.3209C80.4886 38.3457 81.5871 36.0623 83.784 34.4708C85.9981 32.8794 89.1896 32.075 93.3586 32.0577H96.8096V30.449C96.8096 29.1516 96.4722 28.1138 95.7976 27.3354C95.1403 26.5568 94.0937 26.1676 92.658 26.1676C91.3952 26.1676 90.4005 26.4703 89.674 27.0758C88.9648 27.6813 88.6101 28.5116 88.6101 29.5667H81.1114C81.1114 27.9408 81.613 26.4358 82.6164 25.052C83.6197 23.668 85.0381 22.5869 86.8717 21.8085C88.7053 21.0128 90.7638 20.6149 93.0472 20.6149C96.5069 20.6149 99.2486 21.4885 101.273 23.2356C103.314 24.9655 104.334 27.4045 104.334 30.5528V42.722C104.352 45.386 104.724 47.4012 105.45 48.7678V49.209H97.8733ZM91.6719 43.9935C92.779 43.9935 93.7997 43.7514 94.7337 43.267C95.6679 42.7653 96.3598 42.0994 96.8096 41.2691V36.4428H94.0072C90.2535 36.4428 88.2555 37.7401 88.0134 40.3349L87.9875 40.7761C87.9875 41.7102 88.3161 42.4799 88.9734 43.0854C89.6308 43.6908 90.5302 43.9935 91.6719 43.9935ZM125.871 28.1657C124.85 28.0273 123.951 27.958 123.172 27.958C120.335 27.958 118.476 28.9181 117.593 30.8382V49.209H110.095V21.1338H117.178L117.386 24.4811C118.891 21.9037 120.975 20.6149 123.639 20.6149C124.469 20.6149 125.248 20.7274 125.974 20.9523L125.871 28.1657ZM139.779 14.2318V21.1338H144.579V26.6348H139.779V40.6463C139.779 41.6842 139.977 42.428 140.375 42.8778C140.773 43.3276 141.534 43.5524 142.658 43.5524C143.489 43.5524 144.224 43.4919 144.864 43.3708V49.0533C143.393 49.503 141.88 49.7279 140.323 49.7279C135.065 49.7279 132.383 47.0726 132.28 41.762V26.6348H128.18V21.1338H132.28V14.2318H139.779Z" fill="white"/>
<g filter="url(#filter0_d)">
<path d="M100.211 67.5289C100.211 66.9887 100.02 66.5756 99.6389 66.2897C99.2576 65.9975 98.5714 65.6924 97.58 65.3747C96.5888 65.0506 95.804 64.7329 95.2257 64.4216C93.6498 63.5701 92.8619 62.4231 92.8619 60.9806C92.8619 60.2308 93.0715 59.5636 93.4909 58.9789C93.9167 58.388 94.5235 57.9272 95.3115 57.5968C96.1058 57.2665 96.9955 57.1012 97.9803 57.1012C98.9717 57.1012 99.855 57.2823 100.63 57.6446C101.405 58.0004 102.006 58.5055 102.432 59.16C102.864 59.8145 103.08 60.5581 103.08 61.3904H100.22C100.22 60.755 100.02 60.2625 99.6198 59.9131C99.2195 59.5572 98.6572 59.3792 97.9327 59.3792C97.2338 59.3792 96.6904 59.5286 96.3027 59.8272C95.9152 60.1195 95.7213 60.5072 95.7213 60.9901C95.7213 61.4412 95.9469 61.8193 96.3982 62.1243C96.8557 62.4293 97.5261 62.7154 98.4094 62.9823C100.036 63.4715 101.221 64.0785 101.965 64.8028C102.708 65.5272 103.08 66.4295 103.08 67.5098C103.08 68.7107 102.625 69.6544 101.717 70.3407C100.808 71.0206 99.5848 71.3606 98.0472 71.3606C96.9796 71.3606 96.0074 71.1668 95.1304 70.7791C94.2534 70.3852 93.5831 69.8482 93.1192 69.1683C92.6617 68.4884 92.433 67.7004 92.433 66.8045H95.302C95.302 68.3359 96.2171 69.1016 98.0472 69.1016C98.727 69.1016 99.2576 68.9649 99.6389 68.6917C100.02 68.4121 100.211 68.0245 100.211 67.5289ZM108.141 58.3213V60.8567H109.905V62.8774H108.141V68.0245C108.141 68.4057 108.214 68.679 108.36 68.8443C108.507 69.0094 108.786 69.0921 109.199 69.0921C109.504 69.0921 109.774 69.0698 110.009 69.0254V71.1127C109.469 71.278 108.913 71.3606 108.341 71.3606C106.41 71.3606 105.425 70.3852 105.386 68.4343V62.8774H103.881V60.8567H105.386V58.3213H108.141ZM110.724 65.918C110.724 64.8949 110.921 63.983 111.315 63.1824C111.709 62.3818 112.275 61.7622 113.012 61.3237C113.755 60.8853 114.616 60.6661 115.595 60.6661C116.987 60.6661 118.121 61.0918 118.998 61.9434C119.881 62.7948 120.374 63.9513 120.475 65.4128L120.494 66.1181C120.494 67.7004 120.053 68.9713 119.169 69.9308C118.286 70.8841 117.101 71.3606 115.614 71.3606C114.127 71.3606 112.939 70.8841 112.049 69.9308C111.166 68.9777 110.724 67.6814 110.724 66.0419V65.918ZM113.479 66.1181C113.479 67.0967 113.663 67.8465 114.032 68.3676C114.4 68.8824 114.928 69.1396 115.614 69.1396C116.281 69.1396 116.802 68.8855 117.177 68.3771C117.552 67.8625 117.74 67.0428 117.74 65.918C117.74 64.9585 117.552 64.215 117.177 63.6876C116.802 63.1602 116.275 62.8965 115.595 62.8965C114.921 62.8965 114.4 63.1602 114.032 63.6876C113.663 64.2086 113.479 65.0188 113.479 66.1181ZM126.48 69.1396C126.989 69.1396 127.402 68.9999 127.719 68.7204C128.037 68.4407 128.202 68.069 128.215 67.6051H130.798C130.792 68.304 130.601 68.9459 130.226 69.5305C129.851 70.1088 129.337 70.5599 128.682 70.8841C128.034 71.2017 127.316 71.3606 126.528 71.3606C125.054 71.3606 123.891 70.8935 123.039 69.9594C122.188 69.019 121.762 67.7226 121.762 66.0705V65.8894C121.762 64.3008 122.185 63.0331 123.03 62.0862C123.875 61.1395 125.035 60.6661 126.509 60.6661C127.799 60.6661 128.831 61.0346 129.607 61.7717C130.388 62.5024 130.785 63.4779 130.798 64.698H128.215C128.202 64.1641 128.037 63.7321 127.719 63.4016C127.402 63.0649 126.982 62.8965 126.461 62.8965C125.819 62.8965 125.333 63.1316 125.003 63.6018C124.679 64.0657 124.517 64.8219 124.517 65.8703V66.1563C124.517 67.2175 124.679 67.9801 125.003 68.4439C125.327 68.9077 125.819 69.1396 126.48 69.1396ZM136.116 67.0332L135.125 68.0245V71.17H132.371V56.5293H135.125V64.6408L135.659 63.9544L138.3 60.8567H141.607L137.88 65.1555L141.931 71.17H138.766L136.116 67.0332Z" fill="#34BE4A"/>
</g>
<g filter="url(#filter1_d)">
<path d="M23.8589 57.7493H10.3027V71.3055H23.8589V57.7493Z" fill="#34BE4A"/>
</g>
<g filter="url(#filter2_d)">
<path d="M43.2441 57.7493H29.688V71.3055H43.2441V57.7493Z" fill="white"/>
</g>
<g filter="url(#filter3_d)">
<path d="M62.6295 57.7493H49.0734V71.3055H62.6295V57.7493Z" fill="#34BE4A"/>
</g>
<g filter="url(#filter4_d)">
<path d="M82.0149 57.7493H68.4586V71.3055H82.0149V57.7493Z" fill="white"/>
</g>
</g>
<defs>
<filter id="filter0_d" x="88.433" y="56.5293" width="57.4975" height="22.8313" filterUnits="userSpaceOnUse" color-interpolation-filters="sRGB">
<feFlood flood-opacity="0" result="BackgroundImageFix"/>
<feColorMatrix in="SourceAlpha" type="matrix" values="0 0 0 0 0 0 0 0 0 0 0 0 0 0 0 0 0 0 127 0"/>
<feOffset dy="4"/>
<feGaussianBlur stdDeviation="2"/>
<feColorMatrix type="matrix" values="0 0 0 0 0 0 0 0 0 0 0 0 0 0 0 0 0 0 0.25 0"/>
<feBlend mode="normal" in2="BackgroundImageFix" result="effect1_dropShadow"/>
<feBlend mode="normal" in="SourceGraphic" in2="effect1_dropShadow" result="shape"/>
</filter>
<filter id="filter1_d" x="6.30273" y="57.7493" width="21.5562" height="21.5562" filterUnits="userSpaceOnUse" color-interpolation-filters="sRGB">
<feFlood flood-opacity="0" result="BackgroundImageFix"/>
<feColorMatrix in="SourceAlpha" type="matrix" values="0 0 0 0 0 0 0 0 0 0 0 0 0 0 0 0 0 0 127 0"/>
<feOffset dy="4"/>
<feGaussianBlur stdDeviation="2"/>
<feColorMatrix type="matrix" values="0 0 0 0 0 0 0 0 0 0 0 0 0 0 0 0 0 0 0.25 0"/>
<feBlend mode="normal" in2="BackgroundImageFix" result="effect1_dropShadow"/>
<feBlend mode="normal" in="SourceGraphic" in2="effect1_dropShadow" result="shape"/>
</filter>
<filter id="filter2_d" x="25.688" y="57.7493" width="21.5562" height="21.5562" filterUnits="userSpaceOnUse" color-interpolation-filters="sRGB">
<feFlood flood-opacity="0" result="BackgroundImageFix"/>
<feColorMatrix in="SourceAlpha" type="matrix" values="0 0 0 0 0 0 0 0 0 0 0 0 0 0 0 0 0 0 127 0"/>
<feOffset dy="4"/>
<feGaussianBlur stdDeviation="2"/>
<feColorMatrix type="matrix" values="0 0 0 0 0 0 0 0 0 0 0 0 0 0 0 0 0 0 0.25 0"/>
<feBlend mode="normal" in2="BackgroundImageFix" result="effect1_dropShadow"/>
<feBlend mode="normal" in="SourceGraphic" in2="effect1_dropShadow" result="shape"/>
</filter>
<filter id="filter3_d" x="45.0734" y="57.7493" width="21.5561" height="21.5562" filterUnits="userSpaceOnUse" color-interpolation-filters="sRGB">
<feFlood flood-opacity="0" result="BackgroundImageFix"/>
<feColorMatrix in="SourceAlpha" type="matrix" values="0 0 0 0 0 0 0 0 0 0 0 0 0 0 0 0 0 0 127 0"/>
<feOffset dy="4"/>
<feGaussianBlur stdDeviation="2"/>
<feColorMatrix type="matrix" values="0 0 0 0 0 0 0 0 0 0 0 0 0 0 0 0 0 0 0.25 0"/>
<feBlend mode="normal" in2="BackgroundImageFix" result="effect1_dropShadow"/>
<feBlend mode="normal" in="SourceGraphic" in2="effect1_dropShadow" result="shape"/>
</filter>
<filter id="filter4_d" x="64.4586" y="57.7493" width="21.5562" height="21.5562" filterUnits="userSpaceOnUse" color-interpolation-filters="sRGB">
<feFlood flood-opacity="0" result="BackgroundImageFix"/>
<feColorMatrix in="SourceAlpha" type="matrix" values="0 0 0 0 0 0 0 0 0 0 0 0 0 0 0 0 0 0 127 0"/>
<feOffset dy="4"/>
<feGaussianBlur stdDeviation="2"/>
<feColorMatrix type="matrix" values="0 0 0 0 0 0 0 0 0 0 0 0 0 0 0 0 0 0 0.25 0"/>
<feBlend mode="normal" in2="BackgroundImageFix" result="effect1_dropShadow"/>
<feBlend mode="normal" in="SourceGraphic" in2="effect1_dropShadow" result="shape"/>
</filter>
<clipPath id="clip0">
<rect width="146" height="75.9146" fill="white"/>
</clipPath>
</defs>
</svg>
