<svg width="1077" height="560" viewBox="0 0 1077 560" fill="none" xmlns="http://www.w3.org/2000/svg">
<path d="M169.395 289.883C169.395 279.036 165.566 270.742 157.91 265C150.254 259.13 136.473 253.005 116.566 246.625C96.6602 240.117 80.901 233.737 69.2891 227.484C37.6432 210.385 21.8203 187.353 21.8203 158.387C21.8203 143.329 26.0312 129.931 34.4531 118.191C43.0026 106.324 55.1888 97.0729 71.0117 90.4375C86.9622 83.8021 104.827 80.4844 124.605 80.4844C144.512 80.4844 162.249 84.1211 177.816 91.3945C193.384 98.5404 205.443 108.685 213.992 121.828C222.669 134.971 227.008 149.901 227.008 166.617H169.586C169.586 153.857 165.566 143.967 157.527 136.949C149.488 129.803 138.195 126.23 123.648 126.23C109.612 126.23 98.7018 129.229 90.918 135.227C83.1341 141.096 79.2422 148.88 79.2422 158.578C79.2422 167.638 83.7721 175.23 92.832 181.355C102.02 187.48 115.482 193.223 133.219 198.582C165.885 208.408 189.684 220.594 204.613 235.141C219.543 249.688 227.008 267.807 227.008 289.5C227.008 313.617 217.884 332.566 199.637 346.348C181.389 360.001 156.826 366.828 125.945 366.828C104.508 366.828 84.9844 362.936 67.375 355.152C49.7656 347.241 36.3034 336.458 26.9883 322.805C17.8008 309.151 13.207 293.328 13.207 275.336H70.8203C70.8203 306.089 89.1953 321.465 125.945 321.465C139.599 321.465 150.254 318.721 157.91 313.234C165.566 307.62 169.395 299.836 169.395 289.883ZM314.289 155.898L316.012 179.059C330.686 161.066 350.529 152.07 375.539 152.07C402.208 152.07 420.52 162.598 430.473 183.652C445.02 162.598 465.755 152.07 492.68 152.07C515.138 152.07 531.854 158.642 542.828 171.785C553.802 184.801 559.289 204.452 559.289 230.738V363H503.781V230.93C503.781 219.19 501.484 210.641 496.891 205.281C492.297 199.794 484.194 197.051 472.582 197.051C455.993 197.051 444.509 204.962 438.129 220.785L438.32 363H383.004V231.121C383.004 219.126 380.643 210.449 375.922 205.09C371.201 199.73 363.161 197.051 351.805 197.051C336.109 197.051 324.753 203.559 317.734 216.574V363H262.418V155.898H314.289ZM721.984 363C719.432 358.023 717.582 351.835 716.434 344.434C703.035 359.363 685.617 366.828 664.18 366.828C643.891 366.828 627.047 360.958 613.648 349.219C600.378 337.479 593.742 322.677 593.742 304.812C593.742 282.865 601.845 266.021 618.051 254.281C634.384 242.542 657.927 236.608 688.68 236.48H714.137V224.613C714.137 215.043 711.648 207.387 706.672 201.645C701.823 195.902 694.103 193.031 683.512 193.031C674.197 193.031 666.859 195.264 661.5 199.73C656.268 204.197 653.652 210.322 653.652 218.105H598.336C598.336 206.111 602.036 195.009 609.438 184.801C616.839 174.592 627.302 166.617 640.828 160.875C654.354 155.005 669.539 152.07 686.383 152.07C711.904 152.07 732.129 158.514 747.059 171.402C762.116 184.163 769.645 202.155 769.645 225.379V315.148C769.772 334.799 772.516 349.665 777.875 359.746V363H721.984ZM676.238 324.527C684.405 324.527 691.934 322.741 698.824 319.168C705.715 315.467 710.819 310.555 714.137 304.43V268.828H693.465C665.775 268.828 651.036 278.398 649.25 297.539L649.059 300.793C649.059 307.684 651.483 313.362 656.332 317.828C661.181 322.294 667.816 324.527 676.238 324.527ZM928.512 207.77C920.983 206.749 914.348 206.238 908.605 206.238C887.678 206.238 873.961 213.32 867.453 227.484V363H812.137V155.898H864.391L865.922 180.59C877.023 161.577 892.4 152.07 912.051 152.07C918.176 152.07 923.918 152.9 929.277 154.559L928.512 207.77ZM1031.11 104.984V155.898H1066.52V196.477H1031.11V299.836C1031.11 307.492 1032.57 312.979 1035.51 316.297C1038.44 319.615 1044.06 321.273 1052.35 321.273C1058.48 321.273 1063.9 320.827 1068.62 319.934V361.852C1057.77 365.169 1046.61 366.828 1035.12 366.828C996.333 366.828 976.555 347.241 975.789 308.066V196.477H945.547V155.898H975.789V104.984H1031.11Z" fill="black"/>
<path d="M739.227 498.141C739.227 494.156 737.82 491.109 735.008 489C732.195 486.844 727.133 484.594 719.82 482.25C712.508 479.859 706.719 477.516 702.453 475.219C690.828 468.938 685.016 460.477 685.016 449.836C685.016 444.305 686.562 439.383 689.656 435.07C692.797 430.711 697.273 427.312 703.086 424.875C708.945 422.438 715.508 421.219 722.773 421.219C730.086 421.219 736.602 422.555 742.32 425.227C748.039 427.852 752.469 431.578 755.609 436.406C758.797 441.234 760.391 446.719 760.391 452.859H739.297C739.297 448.172 737.82 444.539 734.867 441.961C731.914 439.336 727.766 438.023 722.422 438.023C717.266 438.023 713.258 439.125 710.398 441.328C707.539 443.484 706.109 446.344 706.109 449.906C706.109 453.234 707.773 456.023 711.102 458.273C714.477 460.523 719.422 462.633 725.938 464.602C737.938 468.211 746.68 472.688 752.164 478.031C757.648 483.375 760.391 490.031 760.391 498C760.391 506.859 757.039 513.82 750.336 518.883C743.633 523.898 734.609 526.406 723.266 526.406C715.391 526.406 708.219 524.977 701.75 522.117C695.281 519.211 690.336 515.25 686.914 510.234C683.539 505.219 681.852 499.406 681.852 492.797H703.016C703.016 504.094 709.766 509.742 723.266 509.742C728.281 509.742 732.195 508.734 735.008 506.719C737.82 504.656 739.227 501.797 739.227 498.141ZM797.727 430.219V448.922H810.734V463.828H797.727V501.797C797.727 504.609 798.266 506.625 799.344 507.844C800.422 509.062 802.484 509.672 805.531 509.672C807.781 509.672 809.773 509.508 811.508 509.18V524.578C807.523 525.797 803.422 526.406 799.203 526.406C784.953 526.406 777.688 519.211 777.406 504.82V463.828H766.297V448.922H777.406V430.219H797.727ZM816.781 486.258C816.781 478.711 818.234 471.984 821.141 466.078C824.047 460.172 828.219 455.602 833.656 452.367C839.141 449.133 845.492 447.516 852.711 447.516C862.977 447.516 871.344 450.656 877.812 456.938C884.328 463.219 887.961 471.75 888.711 482.531L888.852 487.734C888.852 499.406 885.594 508.781 879.078 515.859C872.562 522.891 863.82 526.406 852.852 526.406C841.883 526.406 833.117 522.891 826.555 515.859C820.039 508.828 816.781 499.266 816.781 487.172V486.258ZM837.102 487.734C837.102 494.953 838.461 500.484 841.18 504.328C843.898 508.125 847.789 510.023 852.852 510.023C857.773 510.023 861.617 508.148 864.383 504.398C867.148 500.602 868.531 494.555 868.531 486.258C868.531 479.18 867.148 473.695 864.383 469.805C861.617 465.914 857.727 463.969 852.711 463.969C847.742 463.969 843.898 465.914 841.18 469.805C838.461 473.648 837.102 479.625 837.102 487.734ZM933.008 510.023C936.758 510.023 939.805 508.992 942.148 506.93C944.492 504.867 945.711 502.125 945.805 498.703H964.859C964.812 503.859 963.406 508.594 960.641 512.906C957.875 517.172 954.078 520.5 949.25 522.891C944.469 525.234 939.172 526.406 933.359 526.406C922.484 526.406 913.906 522.961 907.625 516.07C901.344 509.133 898.203 499.57 898.203 487.383V486.047C898.203 474.328 901.32 464.977 907.555 457.992C913.789 451.008 922.344 447.516 933.219 447.516C942.734 447.516 950.352 450.234 956.07 455.672C961.836 461.062 964.766 468.258 964.859 477.258H945.805C945.711 473.32 944.492 470.133 942.148 467.695C939.805 465.211 936.711 463.969 932.867 463.969C928.133 463.969 924.547 465.703 922.109 469.172C919.719 472.594 918.523 478.172 918.523 485.906V488.016C918.523 495.844 919.719 501.469 922.109 504.891C924.5 508.312 928.133 510.023 933.008 510.023ZM1004.09 494.484L996.781 501.797V525H976.461V417H996.781V476.836L1000.72 471.773L1020.2 448.922H1044.59L1017.1 480.633L1046.98 525H1023.64L1004.09 494.484Z" fill="black"/>
<rect x="76" y="426" width="100" height="100" fill="#19A730"/>
<rect x="219" y="426" width="100" height="100" fill="#19A730"/>
<rect x="362" y="426" width="100" height="100" fill="#19A730"/>
<rect x="505" y="426" width="100" height="100" fill="#19A730"/>
</svg>
